<svg xmlns="http://www.w3.org/2000/svg" viewBox="0 0 410 404">
  <defs>
    <linearGradient id="a" x1="6%" x2="89%" y1="7%" y2="90%">
      <stop offset="0%" stop-color="#41D1FF"/>
      <stop offset="100%" stop-color="#BD34FE"/>
    </linearGradient>
  </defs>
  <path fill="url(#a)" d="M369 352.5 170.6 7.2a23.5 23.5 0 0 0-41.2 0L-29 352.5a23.5 23.5 0 0 0 20.6 35l358.8-.3a23.5 23.5 0 0 0 20.6-34.7Z"/>
  <path fill="#41D1FF" d="M149.3 336.7c9.7 11.6 28.5 10.8 37 .1l94.9-119.6c9-11.3 2-28-11.6-28H207c-6 0-11.6-2.5-15.6-7a25 25 0 0 1-5.8-19.8l9.7-66c.6-4-4.7-6-7-2.5L81.8 245.3c-8 12.4-.8 29.2 12.4 29.2h42c6.3 0 12.3 2.7 16.4 7.3a26 26 0 0 1 6.2 21.2l-9.5 33.7Z"/>
</svg>